<svg width="146" height="17" viewBox="0 0 146 17" fill="none" xmlns="http://www.w3.org/2000/svg">
<path d="M15.6045 8.12598C15.6045 9.33626 15.4577 10.4391 15.1641 11.4346C14.8776 12.4229 14.4264 13.2751 13.8105 13.9912C13.1947 14.7074 12.4033 15.2588 11.4365 15.6455C10.4697 16.0251 9.31315 16.2148 7.9668 16.2148C6.64909 16.2148 5.50684 16.0251 4.54004 15.6455C3.5804 15.2588 2.78906 14.7109 2.16602 14.002C1.54297 13.2858 1.08105 12.43 0.780273 11.4346C0.479492 10.4391 0.329102 9.3291 0.329102 8.10449C0.329102 6.47168 0.597656 5.05371 1.13477 3.85059C1.67904 2.6403 2.51693 1.70573 3.64844 1.04688C4.77995 0.380859 6.22656 0.0478516 7.98828 0.0478516C9.77865 0.0478516 11.2324 0.380859 12.3496 1.04688C13.474 1.71289 14.2975 2.65104 14.8203 3.86133C15.3431 5.07161 15.6045 6.49316 15.6045 8.12598ZM4.79785 8.12598C4.79785 9.07129 4.90527 9.88411 5.12012 10.5645C5.33496 11.2448 5.67513 11.7676 6.14062 12.1328C6.60612 12.498 7.21484 12.6807 7.9668 12.6807C8.7474 12.6807 9.36686 12.498 9.8252 12.1328C10.2907 11.7676 10.6237 11.2448 10.8242 10.5645C11.0319 9.88411 11.1357 9.07129 11.1357 8.12598C11.1357 6.70801 10.8994 5.58724 10.4268 4.76367C9.9541 3.9401 9.14128 3.52832 7.98828 3.52832C7.22201 3.52832 6.60254 3.71452 6.12988 4.08691C5.66439 4.45931 5.32422 4.98926 5.10938 5.67676C4.90169 6.36426 4.79785 7.18066 4.79785 8.12598ZM23.876 0.294922C25.8669 0.294922 27.3564 0.72819 28.3447 1.59473C29.3402 2.46126 29.8379 3.69303 29.8379 5.29004C29.8379 6.00618 29.734 6.69368 29.5264 7.35254C29.3258 8.01139 28.9928 8.59863 28.5273 9.11426C28.069 9.62988 27.4567 10.0381 26.6904 10.3389C25.9313 10.6396 24.9932 10.79 23.876 10.79H22.6836V16H18.4404V0.294922H23.876ZM23.7793 3.72168H22.6836V7.33105H23.5215C23.8867 7.33105 24.2269 7.27018 24.542 7.14844C24.8571 7.01953 25.1077 6.81543 25.2939 6.53613C25.4873 6.24967 25.584 5.87012 25.584 5.39746C25.584 4.90332 25.4372 4.50228 25.1436 4.19434C24.8499 3.87923 24.3952 3.72168 23.7793 3.72168ZM41.665 16H32.3408V0.294922H41.665V3.7002H36.584V6.1709H41.2891V9.57617H36.584V12.541H41.665V16ZM59.3682 16H53.8037L48.0674 4.93555H47.9707C48.0065 5.27214 48.0387 5.67676 48.0674 6.14941C48.096 6.62207 48.1211 7.10547 48.1426 7.59961C48.1641 8.08659 48.1748 8.52702 48.1748 8.9209V16H44.415V0.294922H49.958L55.6729 11.209H55.7373C55.7158 10.8652 55.6943 10.4678 55.6729 10.0166C55.6514 9.55827 55.6299 9.09635 55.6084 8.63086C55.5941 8.16536 55.5869 7.75358 55.5869 7.39551V0.294922H59.3682V16ZM69.7559 3.5498C69.2546 3.5498 68.807 3.65723 68.4131 3.87207C68.0192 4.07975 67.6826 4.38411 67.4033 4.78516C67.124 5.1862 66.9092 5.67676 66.7588 6.25684C66.6156 6.82975 66.5439 7.48145 66.5439 8.21191C66.5439 9.2002 66.6693 10.0309 66.9199 10.7041C67.1706 11.3773 67.5501 11.8857 68.0586 12.2295C68.5742 12.5732 69.2188 12.7451 69.9922 12.7451C70.694 12.7451 71.3672 12.6484 72.0117 12.4551C72.6634 12.2617 73.3187 12.029 73.9775 11.7568V15.3447C73.2829 15.6527 72.5703 15.8747 71.8398 16.0107C71.1165 16.1468 70.3467 16.2148 69.5303 16.2148C67.8258 16.2148 66.4294 15.8783 65.3408 15.2051C64.2594 14.5247 63.4609 13.583 62.9453 12.3799C62.4368 11.1768 62.1826 9.78027 62.1826 8.19043C62.1826 7.00163 62.3473 5.91309 62.6768 4.9248C63.0133 3.93652 63.5039 3.08073 64.1484 2.35742C64.793 1.62695 65.5879 1.06478 66.5332 0.670898C67.4857 0.269857 68.5742 0.0693359 69.7988 0.0693359C70.5579 0.0693359 71.3564 0.158854 72.1943 0.337891C73.0394 0.509766 73.863 0.789062 74.665 1.17578L73.3652 4.5166C72.7923 4.24447 72.2122 4.0153 71.625 3.8291C71.0378 3.6429 70.4147 3.5498 69.7559 3.5498ZM82.1953 0.294922C83.6204 0.294922 84.8057 0.470378 85.751 0.821289C86.6963 1.16504 87.4053 1.68066 87.8779 2.36816C88.3577 3.05566 88.5977 3.91146 88.5977 4.93555C88.5977 5.57292 88.4902 6.15299 88.2754 6.67578C88.0605 7.19857 87.7526 7.66764 87.3516 8.08301C86.9577 8.49121 86.485 8.84928 85.9336 9.15723L90.5098 16H85.6973L82.3672 10.2852H81.293V16H77.0498V0.294922H82.1953ZM82.1309 3.50684H81.293V7.09473H82.0879C82.7396 7.09473 83.2731 6.9515 83.6885 6.66504C84.1038 6.37858 84.3115 5.86654 84.3115 5.12891C84.3115 4.62044 84.1396 4.22298 83.7959 3.93652C83.4521 3.65007 82.8971 3.50684 82.1309 3.50684ZM106.634 8.12598C106.634 9.33626 106.487 10.4391 106.193 11.4346C105.907 12.4229 105.456 13.2751 104.84 13.9912C104.224 14.7074 103.433 15.2588 102.466 15.6455C101.499 16.0251 100.342 16.2148 98.9961 16.2148C97.6784 16.2148 96.5361 16.0251 95.5693 15.6455C94.6097 15.2588 93.8184 14.7109 93.1953 14.002C92.5723 13.2858 92.1104 12.43 91.8096 11.4346C91.5088 10.4391 91.3584 9.3291 91.3584 8.10449C91.3584 6.47168 91.627 5.05371 92.1641 3.85059C92.7083 2.6403 93.5462 1.70573 94.6777 1.04688C95.8092 0.380859 97.2559 0.0478516 99.0176 0.0478516C100.808 0.0478516 102.262 0.380859 103.379 1.04688C104.503 1.71289 105.327 2.65104 105.85 3.86133C106.372 5.07161 106.634 6.49316 106.634 8.12598ZM95.8271 8.12598C95.8271 9.07129 95.9346 9.88411 96.1494 10.5645C96.3643 11.2448 96.7044 11.7676 97.1699 12.1328C97.6354 12.498 98.2441 12.6807 98.9961 12.6807C99.7767 12.6807 100.396 12.498 100.854 12.1328C101.32 11.7676 101.653 11.2448 101.854 10.5645C102.061 9.88411 102.165 9.07129 102.165 8.12598C102.165 6.70801 101.929 5.58724 101.456 4.76367C100.983 3.9401 100.171 3.52832 99.0176 3.52832C98.2513 3.52832 97.6318 3.71452 97.1592 4.08691C96.6937 4.45931 96.3535 4.98926 96.1387 5.67676C95.931 6.36426 95.8271 7.18066 95.8271 8.12598ZM130.299 0.294922L126.432 16H121.415L119.911 9.15723C119.882 9.02832 119.836 8.8099 119.771 8.50195C119.714 8.19401 119.646 7.8431 119.567 7.44922C119.496 7.05534 119.428 6.66862 119.363 6.28906C119.306 5.90234 119.263 5.5765 119.234 5.31152C119.206 5.5765 119.159 5.90234 119.095 6.28906C119.03 6.66862 118.959 7.05534 118.88 7.44922C118.808 7.8431 118.737 8.19401 118.665 8.50195C118.601 8.8099 118.554 9.02832 118.525 9.15723L117.011 16H111.994L108.105 0.294922H112.198L113.906 8.16895C113.949 8.3623 114.007 8.63802 114.078 8.99609C114.157 9.34701 114.236 9.73372 114.314 10.1562C114.4 10.5716 114.479 10.9727 114.551 11.3594C114.622 11.7461 114.673 12.0684 114.701 12.3262C114.758 11.8822 114.834 11.3773 114.927 10.8115C115.027 10.2458 115.134 9.67285 115.249 9.09277C115.371 8.50553 115.485 7.96126 115.593 7.45996C115.7 6.95866 115.793 6.55046 115.872 6.23535L117.258 0.294922H121.189L122.532 6.23535C122.604 6.54329 122.693 6.9515 122.801 7.45996C122.915 7.96126 123.03 8.50553 123.145 9.09277C123.266 9.68001 123.377 10.2601 123.478 10.833C123.578 11.3988 123.653 11.8965 123.703 12.3262C123.746 11.9681 123.818 11.5169 123.918 10.9727C124.018 10.4212 124.118 9.8877 124.219 9.37207C124.326 8.84928 124.409 8.4554 124.466 8.19043L126.206 0.294922H130.299ZM145.66 7.81445C145.66 9.64062 145.32 11.1589 144.64 12.3691C143.959 13.5794 143 14.4889 141.761 15.0977C140.529 15.6992 139.079 16 137.41 16H132.329V0.294922H137.765C139.455 0.294922 140.887 0.584961 142.062 1.16504C143.236 1.74512 144.128 2.59375 144.736 3.71094C145.352 4.82812 145.66 6.19596 145.66 7.81445ZM141.256 7.96484C141.256 7.01237 141.127 6.22461 140.869 5.60156C140.618 4.97135 140.239 4.50228 139.73 4.19434C139.222 3.87923 138.581 3.72168 137.808 3.72168H136.572V12.5195H137.518C138.807 12.5195 139.752 12.1471 140.354 11.4023C140.955 10.6504 141.256 9.50456 141.256 7.96484Z" fill="white"/>
<path d="M15.1641 11.4346L14.6845 11.2931L14.6838 11.2954L15.1641 11.4346ZM13.8105 13.9912L13.4315 13.6652L13.8105 13.9912ZM11.4365 15.6455L11.6192 16.1109L11.6222 16.1097L11.4365 15.6455ZM4.54004 15.6455L4.35314 16.1093L4.35732 16.1109L4.54004 15.6455ZM2.16602 14.002L1.78879 14.3301L1.79043 14.332L2.16602 14.002ZM1.13477 3.85059L0.678753 3.64552L0.678197 3.64676L1.13477 3.85059ZM3.64844 1.04688L3.90004 1.47897L3.90207 1.47777L3.64844 1.04688ZM12.3496 1.04688L12.0936 1.47635L12.0948 1.47707L12.3496 1.04688ZM14.8203 3.86133L14.3613 4.0596L14.8203 3.86133ZM5.12012 10.5645L4.64333 10.715L5.12012 10.5645ZM9.8252 12.1328L9.51654 11.7394L9.51359 11.7418L9.8252 12.1328ZM10.8242 10.5645L10.346 10.4185L10.3446 10.4231L10.8242 10.5645ZM10.4268 4.76367L9.9931 5.01255L10.4268 4.76367ZM6.12988 4.08691L5.82044 3.69416L5.81754 3.69648L6.12988 4.08691ZM5.10938 5.67676L4.63211 5.52761L4.63074 5.53217L5.10938 5.67676ZM15.1045 8.12598C15.1045 9.29612 14.9625 10.3505 14.6845 11.2931L15.6436 11.576C15.9528 10.5278 16.1045 9.3764 16.1045 8.12598H15.1045ZM14.6838 11.2954C14.4155 12.2211 13.9966 13.0081 13.4315 13.6652L14.1896 14.3172C14.8563 13.5421 15.3397 12.6246 15.6443 11.5738L14.6838 11.2954ZM13.4315 13.6652C12.8732 14.3143 12.1508 14.8213 11.2508 15.1813L11.6222 16.1097C12.6559 15.6963 13.5161 15.1004 14.1896 14.3172L13.4315 13.6652ZM11.2538 15.1801C10.3596 15.5311 9.26825 15.7148 7.9668 15.7148V16.7148C9.35805 16.7148 10.5798 16.519 11.6192 16.1109L11.2538 15.1801ZM7.9668 15.7148C6.69552 15.7148 5.61803 15.5316 4.72276 15.1801L4.35732 16.1109C5.39564 16.5186 6.60266 16.7148 7.9668 16.7148V15.7148ZM4.72693 15.1817C3.83268 14.8214 3.10824 14.3167 2.5416 13.6719L1.79043 14.332C2.46989 15.1052 3.32812 15.6962 4.35315 16.1093L4.72693 15.1817ZM2.54324 13.6738C1.97086 13.0159 1.54121 12.2242 1.2589 11.2899L0.301646 11.5792C0.620902 12.6358 1.11507 13.5557 1.78879 14.3301L2.54324 13.6738ZM1.2589 11.2899C0.974545 10.3489 0.829102 9.28856 0.829102 8.10449H-0.170898C-0.170898 9.36964 -0.0155605 10.5294 0.301646 11.5792L1.2589 11.2899ZM0.829102 8.10449C0.829102 6.52557 1.08884 5.17999 1.59133 4.05441L0.678197 3.64676C0.106468 4.92743 -0.170898 6.41778 -0.170898 8.10449H0.829102ZM1.59078 4.05566C2.09288 2.93914 2.85997 2.08457 3.90003 1.47896L3.39684 0.614787C2.17388 1.32689 1.26519 2.34146 0.678754 3.64552L1.59078 4.05566ZM3.90207 1.47777C4.93478 0.869911 6.2863 0.547852 7.98828 0.547852V-0.452148C6.16683 -0.452148 4.62512 -0.108192 3.39481 0.615978L3.90207 1.47777ZM7.98828 0.547852C9.72104 0.547852 11.0777 0.870707 12.0936 1.47635L12.6056 0.617402C11.3872 -0.108988 9.83625 -0.452148 7.98828 -0.452148V0.547852ZM12.0948 1.47707C13.1274 2.08876 13.88 2.94531 14.3613 4.0596L15.2793 3.66306C14.7151 2.35677 13.8205 1.33702 12.6044 0.616685L12.0948 1.47707ZM14.3613 4.0596C14.8514 5.19425 15.1045 6.54557 15.1045 8.12598H16.1045C16.1045 6.44076 15.8348 4.94898 15.2793 3.66306L14.3613 4.0596ZM4.29785 8.12598C4.29785 9.10682 4.40903 9.97308 4.64333 10.715L5.59691 10.4139C5.40152 9.79514 5.29785 9.03576 5.29785 8.12598H4.29785ZM4.64333 10.715C4.88215 11.4713 5.27218 12.087 5.83198 12.5262L6.44927 11.7394C6.07808 11.4482 5.78777 11.0183 5.59691 10.4139L4.64333 10.715ZM5.83198 12.5262C6.40701 12.9774 7.1337 13.1807 7.9668 13.1807V12.1807C7.29598 12.1807 6.80523 12.0187 6.44927 11.7394L5.83198 12.5262ZM7.9668 13.1807C8.82299 13.1807 9.56442 12.98 10.1368 12.5238L9.51359 11.7418C9.1693 12.0161 8.6718 12.1807 7.9668 12.1807V13.1807ZM10.1338 12.5262C10.6963 12.0848 11.0799 11.4656 11.3038 10.7058L10.3446 10.4231C10.1675 11.024 9.88505 11.4503 9.51655 11.7394L10.1338 12.5262ZM11.3024 10.7104C11.5284 9.97016 11.6357 9.10555 11.6357 8.12598H10.6357C10.6357 9.03703 10.5354 9.79807 10.346 10.4185L11.3024 10.7104ZM11.6357 8.12598C11.6357 6.66061 11.3928 5.4425 10.8604 4.51479L9.9931 5.01255C10.406 5.73198 10.6357 6.75541 10.6357 8.12598H11.6357ZM10.8604 4.51479C10.2782 3.50032 9.27519 3.02832 7.98828 3.02832V4.02832C9.00736 4.02832 9.63001 4.37989 9.9931 5.01255L10.8604 4.51479ZM7.98828 3.02832C7.1409 3.02832 6.40298 3.2352 5.82045 3.69417L6.43932 4.47966C6.8021 4.19383 7.30311 4.02832 7.98828 4.02832V3.02832ZM5.81754 3.69648C5.25933 4.14305 4.87041 4.76514 4.63214 5.52762L5.58661 5.8259C5.77803 5.21338 6.06945 4.77557 6.44223 4.47735L5.81754 3.69648ZM4.63074 5.53217C4.40523 6.27868 4.29785 7.1462 4.29785 8.12598H5.29785C5.29785 7.21513 5.39816 6.44983 5.58801 5.82135L4.63074 5.53217ZM28.3447 1.59473L28.0151 1.97068L28.0164 1.97185L28.3447 1.59473ZM29.5264 7.35254L29.0495 7.20221L29.048 7.20696L29.5264 7.35254ZM28.5273 9.11426L28.1562 8.7792L28.1536 8.78208L28.5273 9.11426ZM26.6904 10.3389L26.5077 9.87344L26.5062 9.87403L26.6904 10.3389ZM22.6836 10.79V10.29H22.1836V10.79H22.6836ZM22.6836 16V16.5H23.1836V16H22.6836ZM18.4404 16H17.9404V16.5H18.4404V16ZM18.4404 0.294922V-0.205078H17.9404V0.294922H18.4404ZM22.6836 3.72168V3.22168H22.1836V3.72168H22.6836ZM22.6836 7.33105H22.1836V7.83105H22.6836V7.33105ZM24.542 7.14844L24.7222 7.61493L24.7313 7.61121L24.542 7.14844ZM25.2939 6.53613L24.8795 6.25639L24.8779 6.25878L25.2939 6.53613ZM25.1436 4.19434L24.7777 4.53522L24.7817 4.53937L25.1436 4.19434ZM23.876 0.794922C25.8059 0.794922 27.1549 1.21648 28.0151 1.97068L28.6744 1.21878C27.558 0.239898 25.9279 -0.205078 23.876 -0.205078V0.794922ZM28.0164 1.97185C28.88 2.72362 29.3379 3.80448 29.3379 5.29004H30.3379C30.3379 3.58158 29.8003 2.1989 28.673 1.2176L28.0164 1.97185ZM29.3379 5.29004C29.3379 5.95708 29.2413 6.59377 29.0495 7.20222L30.0032 7.50286C30.2268 6.7936 30.3379 6.05529 30.3379 5.29004H29.3379ZM29.048 7.20696C28.8691 7.79492 28.5729 8.31761 28.1562 8.77921L28.8985 9.44931C29.4127 8.87966 29.7826 8.22787 30.0047 7.49812L29.048 7.20696ZM28.1536 8.78208C27.7568 9.22854 27.2148 9.5959 26.5077 9.87344L26.8731 10.8043C27.6986 10.4803 28.3812 10.0312 28.901 9.44644L28.1536 8.78208ZM26.5062 9.87403C25.823 10.1447 24.9518 10.29 23.876 10.29V11.29C25.0345 11.29 26.0396 11.1346 26.8746 10.8037L26.5062 9.87403ZM23.876 10.29H22.6836V11.29H23.876V10.29ZM22.1836 10.79V16H23.1836V10.79H22.1836ZM22.6836 15.5H18.4404V16.5H22.6836V15.5ZM18.9404 16V0.294922H17.9404V16H18.9404ZM18.4404 0.794922H23.876V-0.205078H18.4404V0.794922ZM23.7793 3.22168H22.6836V4.22168H23.7793V3.22168ZM22.1836 3.72168V7.33105H23.1836V3.72168H22.1836ZM22.6836 7.83105H23.5215V6.83105H22.6836V7.83105ZM23.5215 7.83105C23.9433 7.83105 24.3451 7.76053 24.7222 7.61484L24.3618 6.68204C24.1087 6.77983 23.8301 6.83105 23.5215 6.83105V7.83105ZM24.7313 7.61121C25.1374 7.44509 25.4676 7.17708 25.71 6.81348L24.8779 6.25878C24.7479 6.45378 24.5768 6.59398 24.3527 6.68566L24.7313 7.61121ZM25.7084 6.81587C25.9746 6.42149 26.084 5.93417 26.084 5.39746H25.084C25.084 5.80607 25 6.07786 24.8795 6.2564L25.7084 6.81587ZM26.084 5.39746C26.084 4.79708 25.902 4.26518 25.5054 3.8493L24.7817 4.53937C24.9724 4.73938 25.084 5.00956 25.084 5.39746H26.084ZM25.5094 3.85347C25.0865 3.39966 24.4732 3.22168 23.7793 3.22168V4.22168C24.3172 4.22168 24.6134 4.35881 24.7778 4.5352L25.5094 3.85347ZM41.665 16V16.5H42.165V16H41.665ZM32.3408 16H31.8408V16.5H32.3408V16ZM32.3408 0.294922V-0.205078H31.8408V0.294922H32.3408ZM41.665 0.294922H42.165V-0.205078H41.665V0.294922ZM41.665 3.7002V4.2002H42.165V3.7002H41.665ZM36.584 3.7002V3.2002H36.084V3.7002H36.584ZM36.584 6.1709H36.084V6.6709H36.584V6.1709ZM41.2891 6.1709H41.7891V5.6709H41.2891V6.1709ZM41.2891 9.57617V10.0762H41.7891V9.57617H41.2891ZM36.584 9.57617V9.07617H36.084V9.57617H36.584ZM36.584 12.541H36.084V13.041H36.584V12.541ZM41.665 12.541H42.165V12.041H41.665V12.541ZM41.665 15.5H32.3408V16.5H41.665V15.5ZM32.8408 16V0.294922H31.8408V16H32.8408ZM32.3408 0.794922H41.665V-0.205078H32.3408V0.794922ZM41.165 0.294922V3.7002H42.165V0.294922H41.165ZM41.665 3.2002H36.584V4.2002H41.665V3.2002ZM36.084 3.7002V6.1709H37.084V3.7002H36.084ZM36.584 6.6709H41.2891V5.6709H36.584V6.6709ZM40.7891 6.1709V9.57617H41.7891V6.1709H40.7891ZM41.2891 9.07617H36.584V10.0762H41.2891V9.07617ZM36.084 9.57617V12.541H37.084V9.57617H36.084ZM36.584 13.041H41.665V12.041H36.584V13.041ZM41.165 12.541V16H42.165V12.541H41.165ZM59.3682 16V16.5H59.8682V16H59.3682ZM53.8037 16L53.3598 16.2301L53.4997 16.5H53.8037V16ZM48.0674 4.93555L48.5113 4.70541L48.3714 4.43555H48.0674V4.93555ZM47.9707 4.93555V4.43555H47.4147L47.4735 4.98844L47.9707 4.93555ZM48.1426 7.59961L47.643 7.62133L47.6431 7.62165L48.1426 7.59961ZM48.1748 16V16.5H48.6748V16H48.1748ZM44.415 16H43.915V16.5H44.415V16ZM44.415 0.294922V-0.205078H43.915V0.294922H44.415ZM49.958 0.294922L50.401 0.0629835L50.2606 -0.205078H49.958V0.294922ZM55.6729 11.209L55.2299 11.4409L55.3703 11.709H55.6729V11.209ZM55.7373 11.209V11.709H56.2695L56.2363 11.1778L55.7373 11.209ZM55.6729 10.0166L55.1734 10.04L55.1734 10.0404L55.6729 10.0166ZM55.6084 8.63086L55.1086 8.64624L55.1089 8.65391L55.6084 8.63086ZM55.5869 0.294922V-0.205078H55.0869V0.294922H55.5869ZM59.3682 0.294922H59.8682V-0.205078H59.3682V0.294922ZM59.3682 15.5H53.8037V16.5H59.3682V15.5ZM54.2476 15.7699L48.5113 4.70541L47.6235 5.16568L53.3598 16.2301L54.2476 15.7699ZM48.0674 4.43555H47.9707V5.43555H48.0674V4.43555ZM47.4735 4.98844C47.5083 5.3152 47.5399 5.71184 47.5683 6.17966L48.5665 6.11917C48.5375 5.64167 48.5048 5.22907 48.4679 4.88265L47.4735 4.98844ZM47.5683 6.17966C47.5968 6.64935 47.6217 7.12991 47.6431 7.62133L48.6421 7.57789C48.6205 7.08103 48.5953 6.59479 48.5665 6.11917L47.5683 6.17966ZM47.6431 7.62165C47.6643 8.10293 47.6748 8.53584 47.6748 8.9209H48.6748C48.6748 8.51819 48.6638 8.07025 48.6421 7.57757L47.6431 7.62165ZM47.6748 8.9209V16H48.6748V8.9209H47.6748ZM48.1748 15.5H44.415V16.5H48.1748V15.5ZM44.915 16V0.294922H43.915V16H44.915ZM44.415 0.794922H49.958V-0.205078H44.415V0.794922ZM49.5151 0.52686L55.2299 11.4409L56.1158 10.977L50.401 0.0629835L49.5151 0.52686ZM55.6729 11.709H55.7373V10.709H55.6729V11.709ZM56.2363 11.1778C56.215 10.8371 56.1937 10.4422 56.1723 9.99282L55.1734 10.0404C55.195 10.4933 55.2166 10.8933 55.2383 11.2402L56.2363 11.1778ZM56.1723 9.99319C56.1508 9.53498 56.1293 9.07318 56.1079 8.60781L55.1089 8.65391C55.1304 9.11952 55.1519 9.58156 55.1734 10.04L56.1723 9.99319ZM56.1082 8.61548C56.094 8.15368 56.0869 7.7472 56.0869 7.39551H55.0869C55.0869 7.75996 55.0942 8.17704 55.1086 8.64624L56.1082 8.61548ZM56.0869 7.39551V0.294922H55.0869V7.39551H56.0869ZM55.5869 0.794922H59.3682V-0.205078H55.5869V0.794922ZM58.8682 0.294922V16H59.8682V0.294922H58.8682ZM68.4131 3.87207L68.6463 4.3144L68.6525 4.31102L68.4131 3.87207ZM67.4033 4.78516L66.993 4.49941L67.4033 4.78516ZM66.7588 6.25684L66.2748 6.13135L66.2737 6.13557L66.7588 6.25684ZM68.0586 12.2295L67.7786 12.6437L67.7812 12.6455L68.0586 12.2295ZM72.0117 12.4551L71.8695 11.9757L71.868 11.9762L72.0117 12.4551ZM73.9775 11.7568H74.4775V11.0093L73.7867 11.2947L73.9775 11.7568ZM73.9775 15.3447L74.1802 15.8018L74.4775 15.67V15.3447H73.9775ZM71.8398 16.0107L71.7483 15.5192L71.7474 15.5194L71.8398 16.0107ZM65.3408 15.2051L65.0746 15.6283L65.0778 15.6303L65.3408 15.2051ZM62.9453 12.3799L62.4847 12.5745L62.4857 12.5768L62.9453 12.3799ZM62.6768 4.9248L62.2034 4.7636L62.2024 4.76669L62.6768 4.9248ZM64.1484 2.35742L64.5217 2.69007L64.5234 2.68823L64.1484 2.35742ZM66.5332 0.670898L66.7255 1.13244L66.7272 1.13172L66.5332 0.670898ZM72.1943 0.337891L72.0899 0.826877L72.0947 0.827859L72.1943 0.337891ZM74.665 1.17578L75.131 1.35708L75.2987 0.926194L74.8822 0.725397L74.665 1.17578ZM73.3652 4.5166L73.1507 4.96824L73.6363 5.19889L73.8312 4.6979L73.3652 4.5166ZM71.625 3.8291L71.4739 4.30572L71.625 3.8291ZM69.7559 3.0498C69.1809 3.0498 68.6493 3.17369 68.1737 3.43312L68.6525 4.31102C68.9647 4.14076 69.3282 4.0498 69.7559 4.0498V3.0498ZM68.1799 3.42979C67.7086 3.67828 67.3134 4.0393 66.993 4.49941L67.8136 5.0709C68.0518 4.72893 68.3298 4.48123 68.6463 4.31435L68.1799 3.42979ZM66.993 4.49941C66.6732 4.95869 66.4368 5.50645 66.2748 6.13135L67.2428 6.38232C67.3816 5.84706 67.5749 5.41371 67.8136 5.0709L66.993 4.49941ZM66.2737 6.13557C66.1186 6.75619 66.0439 7.44979 66.0439 8.21191H67.0439C67.0439 7.5131 67.1126 6.90331 67.2439 6.3781L66.2737 6.13557ZM66.0439 8.21191C66.0439 9.23894 66.1737 10.1329 66.4513 10.8786L67.3885 10.5296C67.1648 9.92893 67.0439 9.16145 67.0439 8.21191H66.0439ZM66.4513 10.8786C66.732 11.6322 67.1698 12.2322 67.7786 12.6437L68.3386 11.8153C67.9305 11.5393 67.6092 11.1223 67.3885 10.5296L66.4513 10.8786ZM67.7812 12.6455C68.3973 13.0562 69.1446 13.2451 69.9922 13.2451V12.2451C69.2929 12.2451 68.7511 12.0903 68.3359 11.8135L67.7812 12.6455ZM69.9922 13.2451C70.7406 13.2451 71.4623 13.1419 72.1554 12.934L71.868 11.9762C71.2721 12.1549 70.6474 12.2451 69.9922 12.2451V13.2451ZM72.1539 12.9344C72.8229 12.7359 73.4944 12.4974 74.1684 12.219L73.7867 11.2947C73.143 11.5606 72.5039 11.7875 71.8695 11.9757L72.1539 12.9344ZM73.4775 11.7568V15.3447H74.4775V11.7568H73.4775ZM73.7749 14.8876C73.115 15.1802 72.4397 15.3904 71.7483 15.5192L71.9314 16.5023C72.701 16.3589 73.4508 16.1252 74.1802 15.8018L73.7749 14.8876ZM71.7474 15.5194C71.0577 15.6491 70.319 15.7148 69.5303 15.7148V16.7148C70.3744 16.7148 71.1754 16.6445 71.9323 16.5021L71.7474 15.5194ZM69.5303 15.7148C67.8888 15.7148 66.5912 15.3905 65.6038 14.7798L65.0778 15.6303C66.2675 16.3661 67.7629 16.7148 69.5303 16.7148V15.7148ZM65.6071 14.7819C64.6138 14.157 63.8816 13.2952 63.4049 12.1829L62.4857 12.5768C63.0403 13.8708 63.9051 14.8925 65.0746 15.6283L65.6071 14.7819ZM63.4059 12.1852C62.9284 11.0555 62.6826 9.72757 62.6826 8.19043H61.6826C61.6826 9.83298 61.9453 11.298 62.4848 12.5745L63.4059 12.1852ZM62.6826 8.19043C62.6826 7.0479 62.8409 6.01359 63.1511 5.08292L62.2024 4.76669C61.8538 5.81258 61.6826 6.95535 61.6826 8.19043H62.6826ZM63.1501 5.086C63.4668 4.15601 63.925 3.35971 64.5217 2.69006L63.7751 2.02478C63.0828 2.80175 62.5599 3.71703 62.2035 4.76361L63.1501 5.086ZM64.5234 2.68823C65.1151 2.01754 65.8465 1.49869 66.7255 1.13244L66.3409 0.20936C65.3293 0.630871 64.4708 1.23637 63.7735 2.02661L64.5234 2.68823ZM66.7272 1.13172C67.608 0.760855 68.6287 0.569336 69.7988 0.569336V-0.430664C68.5197 -0.430664 67.3633 -0.221142 66.3392 0.210081L66.7272 1.13172ZM69.7988 0.569336C70.5187 0.569336 71.282 0.654233 72.0899 0.826853L72.2988 -0.151072C71.4309 -0.336524 70.5972 -0.430664 69.7988 -0.430664V0.569336ZM72.0947 0.827859C72.8978 0.991199 73.682 1.25688 74.4479 1.62617L74.8822 0.725397C74.044 0.321249 73.181 0.0283322 72.294 -0.152078L72.0947 0.827859ZM74.1991 0.994486L72.8993 4.33531L73.8312 4.6979L75.131 1.35708L74.1991 0.994486ZM73.5798 4.06496C72.9869 3.78336 72.3857 3.54576 71.7761 3.35249L71.4739 4.30572C72.0388 4.48484 72.5977 4.70558 73.1507 4.96824L73.5798 4.06496ZM71.7761 3.35249C71.1367 3.14975 70.4624 3.0498 69.7559 3.0498V4.0498C70.367 4.0498 70.9388 4.13606 71.4739 4.30572L71.7761 3.35249ZM85.751 0.821289L85.577 1.29005L85.5801 1.29119L85.751 0.821289ZM87.8779 2.36816L87.4659 2.65144L87.4679 2.65432L87.8779 2.36816ZM87.3516 8.08301L86.9919 7.73571L86.9918 7.73582L87.3516 8.08301ZM85.9336 9.15723L85.6898 8.72068L85.2168 8.98483L85.518 9.43518L85.9336 9.15723ZM90.5098 16V16.5H91.4457L90.9254 15.722L90.5098 16ZM85.6973 16L85.2653 16.2517L85.4099 16.5H85.6973V16ZM82.3672 10.2852L82.7992 10.0334L82.6545 9.78516H82.3672V10.2852ZM81.293 10.2852V9.78516H80.793V10.2852H81.293ZM81.293 16V16.5H81.793V16H81.293ZM77.0498 16H76.5498V16.5H77.0498V16ZM77.0498 0.294922V-0.205078H76.5498V0.294922H77.0498ZM81.293 3.50684V3.00684H80.793V3.50684H81.293ZM81.293 7.09473H80.793V7.59473H81.293V7.09473ZM83.6885 6.66504L83.9723 7.07665L83.6885 6.66504ZM82.1953 0.794922C83.5837 0.794922 84.7052 0.966422 85.577 1.29003L85.925 0.352543C84.9061 -0.0256665 83.6572 -0.205078 82.1953 -0.205078V0.794922ZM85.5801 1.29119C86.4481 1.60682 87.0635 2.06614 87.4659 2.65143L88.29 2.0849C87.747 1.29519 86.9445 0.723255 85.9218 0.351392L85.5801 1.29119ZM87.4679 2.65432C87.8772 3.24083 88.0977 3.99081 88.0977 4.93555H89.0977C89.0977 3.8321 88.8382 2.8705 88.2879 2.08201L87.4679 2.65432ZM88.0977 4.93555C88.0977 5.51602 88 6.03046 87.8129 6.48573L88.7379 6.86584C88.9805 6.27553 89.0977 5.62982 89.0977 4.93555H88.0977ZM87.8129 6.48573C87.6226 6.9488 87.35 7.3648 86.9919 7.73571L87.7113 8.43031C88.1552 7.97049 88.4985 7.44833 88.7379 6.86584L87.8129 6.48573ZM86.9918 7.73582C86.6356 8.10496 86.2032 8.43399 85.6898 8.72068L86.1774 9.59377C86.7669 9.26458 87.2798 8.87746 87.7114 8.43019L86.9918 7.73582ZM85.518 9.43518L90.0941 16.278L90.9254 15.722L86.3492 8.87927L85.518 9.43518ZM90.5098 15.5H85.6973V16.5H90.5098V15.5ZM86.1293 15.7483L82.7992 10.0334L81.9352 10.5369L85.2653 16.2517L86.1293 15.7483ZM82.3672 9.78516H81.293V10.7852H82.3672V9.78516ZM80.793 10.2852V16H81.793V10.2852H80.793ZM81.293 15.5H77.0498V16.5H81.293V15.5ZM77.5498 16V0.294922H76.5498V16H77.5498ZM77.0498 0.794922H82.1953V-0.205078H77.0498V0.794922ZM82.1309 3.00684H81.293V4.00684H82.1309V3.00684ZM80.793 3.50684V7.09473H81.793V3.50684H80.793ZM81.293 7.59473H82.0879V6.59473H81.293V7.59473ZM82.0879 7.59473C82.8116 7.59473 83.4522 7.43537 83.9723 7.07665L83.4046 6.25343C83.094 6.46763 82.6676 6.59473 82.0879 6.59473V7.59473ZM83.9723 7.07665C84.5781 6.65887 84.8115 5.95019 84.8115 5.12891H83.8115C83.8115 5.78288 83.6296 6.0983 83.4046 6.25343L83.9723 7.07665ZM84.8115 5.12891C84.8115 4.49475 84.5901 3.9475 84.116 3.55241L83.4758 4.32063C83.6892 4.49846 83.8115 4.74614 83.8115 5.12891H84.8115ZM84.116 3.55241C83.6376 3.15373 82.9382 3.00684 82.1309 3.00684V4.00684C82.8561 4.00684 83.2667 4.1464 83.4758 4.32063L84.116 3.55241ZM106.193 11.4346L105.714 11.2931L105.713 11.2954L106.193 11.4346ZM104.84 13.9912L104.461 13.6652L104.84 13.9912ZM102.466 15.6455L102.649 16.1109L102.652 16.1097L102.466 15.6455ZM95.5693 15.6455L95.3824 16.1093L95.3866 16.1109L95.5693 15.6455ZM93.1953 14.002L92.8181 14.3301L92.8197 14.332L93.1953 14.002ZM92.1641 3.85059L91.708 3.64552L91.7075 3.64676L92.1641 3.85059ZM94.6777 1.04688L94.9293 1.47897L94.9314 1.47777L94.6777 1.04688ZM103.379 1.04688L103.123 1.47635L103.124 1.47707L103.379 1.04688ZM105.85 3.86133L105.391 4.0596L105.85 3.86133ZM96.1494 10.5645L95.6726 10.715L96.1494 10.5645ZM100.854 12.1328L100.546 11.7394L100.543 11.7418L100.854 12.1328ZM101.854 10.5645L101.375 10.4185L101.374 10.4231L101.854 10.5645ZM101.456 4.76367L101.022 5.01255L101.456 4.76367ZM97.1592 4.08691L96.8497 3.69416L96.8468 3.69648L97.1592 4.08691ZM96.1387 5.67676L95.6614 5.52761L95.66 5.53217L96.1387 5.67676ZM106.134 8.12598C106.134 9.29612 105.992 10.3505 105.714 11.2931L106.673 11.576C106.982 10.5278 107.134 9.3764 107.134 8.12598H106.134ZM105.713 11.2954C105.445 12.2211 105.026 13.0081 104.461 13.6652L105.219 14.3172C105.886 13.5421 106.369 12.6246 106.674 11.5738L105.713 11.2954ZM104.461 13.6652C103.902 14.3143 103.18 14.8213 102.28 15.1813L102.652 16.1097C103.685 15.6963 104.545 15.1004 105.219 14.3172L104.461 13.6652ZM102.283 15.1801C101.389 15.5311 100.298 15.7148 98.9961 15.7148V16.7148C100.387 16.7148 101.609 16.519 102.649 16.1109L102.283 15.1801ZM98.9961 15.7148C97.7248 15.7148 96.6473 15.5316 95.7521 15.1801L95.3866 16.1109C96.4249 16.5186 97.632 16.7148 98.9961 16.7148V15.7148ZM95.7562 15.1817C94.862 14.8214 94.1375 14.3167 93.5709 13.6719L92.8197 14.332C93.4992 15.1052 94.3574 15.6962 95.3824 16.1093L95.7562 15.1817ZM93.5725 13.6738C93.0002 13.0159 92.5705 12.2242 92.2882 11.2899L91.3309 11.5792C91.6502 12.6358 92.1444 13.5557 92.8181 14.3301L93.5725 13.6738ZM92.2882 11.2899C92.0038 10.3489 91.8584 9.28856 91.8584 8.10449H90.8584C90.8584 9.36964 91.0137 10.5294 91.3309 11.5792L92.2882 11.2899ZM91.8584 8.10449C91.8584 6.52557 92.1181 5.17999 92.6206 4.05441L91.7075 3.64676C91.1358 4.92743 90.8584 6.41778 90.8584 8.10449H91.8584ZM92.6201 4.05566C93.1222 2.93914 93.8893 2.08457 94.9293 1.47896L94.4261 0.614787C93.2032 1.32689 92.2945 2.34146 91.7081 3.64552L92.6201 4.05566ZM94.9314 1.47777C95.9641 0.869911 97.3156 0.547852 99.0176 0.547852V-0.452148C97.1961 -0.452148 95.6544 -0.108192 94.4241 0.615978L94.9314 1.47777ZM99.0176 0.547852C100.75 0.547852 102.107 0.870707 103.123 1.47635L103.635 0.617402C102.416 -0.108988 100.866 -0.452148 99.0176 -0.452148V0.547852ZM103.124 1.47707C104.157 2.08876 104.909 2.94531 105.391 4.0596L106.309 3.66306C105.744 2.35677 104.85 1.33702 103.634 0.616685L103.124 1.47707ZM105.391 4.0596C105.881 5.19425 106.134 6.54557 106.134 8.12598H107.134C107.134 6.44076 106.864 4.94898 106.309 3.66306L105.391 4.0596ZM95.3271 8.12598C95.3271 9.10682 95.4383 9.97308 95.6726 10.715L96.6262 10.4139C96.4308 9.79514 96.3271 9.03576 96.3271 8.12598H95.3271ZM95.6726 10.715C95.9114 11.4713 96.3015 12.087 96.8613 12.5262L97.4786 11.7394C97.1074 11.4482 96.8171 11.0183 96.6262 10.4139L95.6726 10.715ZM96.8613 12.5262C97.4363 12.9774 98.163 13.1807 98.9961 13.1807V12.1807C98.3253 12.1807 97.8345 12.0187 97.4786 11.7394L96.8613 12.5262ZM98.9961 13.1807C99.8523 13.1807 100.594 12.98 101.166 12.5238L100.543 11.7418C100.199 12.0161 99.7011 12.1807 98.9961 12.1807V13.1807ZM101.163 12.5262C101.726 12.0848 102.109 11.4656 102.333 10.7058L101.374 10.4231C101.197 11.024 100.914 11.4503 100.546 11.7394L101.163 12.5262ZM102.332 10.7104C102.558 9.97016 102.665 9.10555 102.665 8.12598H101.665C101.665 9.03703 101.565 9.79807 101.375 10.4185L102.332 10.7104ZM102.665 8.12598C102.665 6.66061 102.422 5.4425 101.89 4.51479L101.022 5.01255C101.435 5.73198 101.665 6.75541 101.665 8.12598H102.665ZM101.89 4.51479C101.307 3.50032 100.304 3.02832 99.0176 3.02832V4.02832C100.037 4.02832 100.659 4.37989 101.022 5.01255L101.89 4.51479ZM99.0176 3.02832C98.1702 3.02832 97.4323 3.2352 96.8497 3.69417L97.4686 4.47966C97.8314 4.19383 98.3324 4.02832 99.0176 4.02832V3.02832ZM96.8468 3.69648C96.2886 4.14305 95.8997 4.76514 95.6614 5.52762L96.6159 5.8259C96.8073 5.21338 97.0987 4.77557 97.4715 4.47735L96.8468 3.69648ZM95.66 5.53217C95.4345 6.27868 95.3271 7.1462 95.3271 8.12598H96.3271C96.3271 7.21513 96.4275 6.44983 96.6173 5.82135L95.66 5.53217ZM130.299 0.294922L130.784 0.41447L130.937 -0.205078H130.299V0.294922ZM126.432 16V16.5H126.823L126.917 16.1195L126.432 16ZM121.415 16L120.927 16.1073L121.013 16.5H121.415V16ZM119.911 9.15723L120.399 9.0499L120.399 9.04876L119.911 9.15723ZM119.771 8.50195L119.28 8.59343L119.282 8.60438L119.771 8.50195ZM119.567 7.44922L119.075 7.53868L119.077 7.54728L119.567 7.44922ZM119.363 6.28906L118.869 6.36235L118.87 6.37277L119.363 6.28906ZM119.234 5.31152L119.731 5.25778H118.737L119.234 5.31152ZM119.095 6.28906L119.588 6.37277L119.588 6.37126L119.095 6.28906ZM118.88 7.44922L118.39 7.35115L118.388 7.35978L118.88 7.44922ZM118.665 8.50195L118.178 8.38867L118.176 8.39952L118.665 8.50195ZM118.525 9.15723L118.037 9.04876L118.037 9.04917L118.525 9.15723ZM117.011 16V16.5H117.412L117.499 16.1081L117.011 16ZM111.994 16L111.509 16.1202L111.603 16.5H111.994V16ZM108.105 0.294922V-0.205078H107.467L107.62 0.415096L108.105 0.294922ZM112.198 0.294922L112.687 0.188928L112.601 -0.205078H112.198V0.294922ZM113.906 8.16895L113.418 8.27494L113.418 8.27741L113.906 8.16895ZM114.078 8.99609L113.588 9.09418L113.59 9.10561L114.078 8.99609ZM114.314 10.1562L113.823 10.2479L113.825 10.2576L114.314 10.1562ZM114.701 12.3262L114.204 12.3814L115.197 12.3902L114.701 12.3262ZM114.927 10.8115L114.434 10.7243L114.433 10.7303L114.927 10.8115ZM115.249 9.09277L114.759 8.99127L114.759 8.99588L115.249 9.09277ZM115.872 6.23535L116.357 6.35663L116.359 6.34894L115.872 6.23535ZM117.258 0.294922V-0.205078H116.861L116.771 0.181335L117.258 0.294922ZM121.189 0.294922L121.677 0.184683L121.589 -0.205078H121.189V0.294922ZM122.532 6.23535L122.045 6.34559L122.045 6.34861L122.532 6.23535ZM122.801 7.45996L122.312 7.56333L122.313 7.57137L122.801 7.45996ZM123.145 9.09277L122.654 9.18854L122.655 9.19427L123.145 9.09277ZM123.478 10.833L122.985 10.9192L122.985 10.9203L123.478 10.833ZM123.703 12.3262L123.206 12.3841L124.2 12.3857L123.703 12.3262ZM123.918 10.9727L124.41 11.0632L124.41 11.0621L123.918 10.9727ZM124.219 9.37207L123.729 9.27143L123.728 9.27664L124.219 9.37207ZM124.466 8.19043L123.978 8.08281L123.977 8.08476L124.466 8.19043ZM126.206 0.294922V-0.205078H125.804L125.718 0.187301L126.206 0.294922ZM129.813 0.175374L125.946 15.8805L126.917 16.1195L130.784 0.41447L129.813 0.175374ZM126.432 15.5H121.415V16.5H126.432V15.5ZM121.903 15.8927L120.399 9.0499L119.423 9.26456L120.927 16.1073L121.903 15.8927ZM120.399 9.04876C120.371 8.92317 120.325 8.70743 120.261 8.39952L119.282 8.60438C119.347 8.91236 119.394 9.13347 119.423 9.26569L120.399 9.04876ZM120.263 8.4105C120.205 8.09984 120.137 7.74666 120.058 7.35116L119.077 7.54728C119.156 7.93954 119.223 8.28818 119.28 8.59341L120.263 8.4105ZM120.059 7.35978C119.988 6.96773 119.92 6.58292 119.856 6.20536L118.87 6.37277C118.935 6.75431 119.003 7.14295 119.075 7.53866L120.059 7.35978ZM119.858 6.21579C119.801 5.83287 119.759 5.51399 119.731 5.25778L118.737 5.36526C118.767 5.639 118.811 5.97182 118.869 6.36234L119.858 6.21579ZM118.737 5.25778C118.71 5.50995 118.665 5.82564 118.602 6.20686L119.588 6.37126C119.653 5.97904 119.701 5.64305 119.731 5.36526L118.737 5.25778ZM118.602 6.20536C118.538 6.57991 118.467 6.96185 118.39 7.35116L119.37 7.54728C119.45 7.14883 119.522 6.75732 119.588 6.37277L118.602 6.20536ZM118.388 7.35978C118.317 7.74766 118.247 8.0904 118.178 8.3887L119.152 8.61521C119.226 8.29762 119.299 7.93853 119.372 7.53866L118.388 7.35978ZM118.176 8.39952C118.111 8.70743 118.065 8.92317 118.037 9.04876L119.013 9.26569C119.043 9.13347 119.09 8.91236 119.154 8.60438L118.176 8.39952ZM118.037 9.04917L116.523 15.8919L117.499 16.1081L119.014 9.26529L118.037 9.04917ZM117.011 15.5H111.994V16.5H117.011V15.5ZM112.479 15.8798L108.591 0.174748L107.62 0.415096L111.509 16.1202L112.479 15.8798ZM108.105 0.794922H112.198V-0.205078H108.105V0.794922ZM111.71 0.400915L113.418 8.27494L114.395 8.06295L112.687 0.188928L111.71 0.400915ZM113.418 8.27741C113.46 8.46556 113.516 8.73719 113.588 9.09415L114.568 8.89804C114.497 8.53885 114.438 8.25905 114.394 8.06048L113.418 8.27741ZM113.59 9.10561C113.667 9.44958 113.745 9.83024 113.823 10.2479L114.806 10.0646C114.726 9.63721 114.646 9.24443 114.566 8.88657L113.59 9.10561ZM113.825 10.2576C113.91 10.6698 113.988 11.0674 114.059 11.4504L115.042 11.2683C114.97 10.8779 114.891 10.4735 114.804 10.0549L113.825 10.2576ZM114.059 11.4504C114.13 11.8306 114.177 12.14 114.204 12.3814L115.198 12.271C115.168 11.9967 115.115 11.6615 115.042 11.2683L114.059 11.4504ZM115.197 12.3902C115.253 11.9532 115.328 11.4542 115.42 10.8927L114.433 10.7303C114.34 11.3003 114.263 11.8111 114.205 12.2622L115.197 12.3902ZM115.419 10.8988C115.519 10.3363 115.626 9.76663 115.74 9.18967L114.759 8.99588C114.643 9.57907 114.535 10.1552 114.434 10.7243L115.419 10.8988ZM115.739 9.19427C115.86 8.60795 115.975 8.06478 116.082 7.56473L115.104 7.3552C114.996 7.85775 114.881 8.40312 114.759 8.99127L115.739 9.19427ZM116.082 7.56473C116.189 7.06619 116.28 6.66406 116.357 6.35662L115.387 6.11408C115.306 6.43685 115.212 6.85113 115.104 7.3552L116.082 7.56473ZM116.359 6.34894L117.745 0.408509L116.771 0.181335L115.385 6.12176L116.359 6.34894ZM117.258 0.794922H121.189V-0.205078H117.258V0.794922ZM120.702 0.405161L122.045 6.34559L123.02 6.12511L121.677 0.184683L120.702 0.405161ZM122.045 6.34861C122.116 6.65185 122.204 7.05635 122.312 7.56331L123.29 7.35661C123.182 6.84664 123.092 6.43474 123.019 6.12209L122.045 6.34861ZM122.313 7.57137C122.427 8.06672 122.54 8.6057 122.654 9.18853L123.635 8.99702C123.52 8.40536 123.404 7.85581 123.288 7.34855L122.313 7.57137ZM122.655 9.19427C122.776 9.77658 122.886 10.3516 122.985 10.9192L123.97 10.7468C123.869 10.1686 123.757 9.58344 123.634 8.99127L122.655 9.19427ZM122.985 10.9203C123.084 11.4792 123.158 11.9668 123.206 12.3841L124.2 12.2682C124.148 11.8262 124.071 11.3183 123.97 10.7458L122.985 10.9203ZM124.2 12.3857C124.241 12.042 124.31 11.602 124.41 11.0632L123.426 10.8821C123.325 11.4318 123.251 11.8942 123.207 12.2666L124.2 12.3857ZM124.41 11.0621C124.51 10.5125 124.61 9.98101 124.71 9.46751L123.728 9.27664C123.627 9.79438 123.527 10.3299 123.426 10.8832L124.41 11.0621ZM124.709 9.47271C124.816 8.95033 124.898 8.55848 124.955 8.2961L123.977 8.08476C123.919 8.35233 123.836 8.74824 123.729 9.27143L124.709 9.47271ZM124.954 8.29805L126.694 0.402543L125.718 0.187301L123.978 8.08281L124.954 8.29805ZM126.206 0.794922H130.299V-0.205078H126.206V0.794922ZM141.761 15.0977L141.98 15.5469L141.981 15.5464L141.761 15.0977ZM132.329 16H131.829V16.5H132.329V16ZM132.329 0.294922V-0.205078H131.829V0.294922H132.329ZM144.736 3.71094L144.297 3.95017L144.298 3.95233L144.736 3.71094ZM140.869 5.60156L140.404 5.78636L140.407 5.79274L140.869 5.60156ZM139.73 4.19434L139.467 4.61936L139.471 4.62202L139.73 4.19434ZM136.572 3.72168V3.22168H136.072V3.72168H136.572ZM136.572 12.5195H136.072V13.0195H136.572V12.5195ZM140.354 11.4023L140.742 11.7165L140.744 11.7147L140.354 11.4023ZM145.16 7.81445C145.16 9.58103 144.831 11.0086 144.204 12.1241L145.076 12.6141C145.809 11.3091 146.16 9.70022 146.16 7.81445H145.16ZM144.204 12.1241C143.573 13.2468 142.688 14.085 141.54 14.6489L141.981 15.5464C143.311 14.8928 144.346 13.912 145.076 12.6141L144.204 12.1241ZM141.541 14.6484C140.391 15.2101 139.019 15.5 137.41 15.5V16.5C139.139 16.5 140.667 16.1883 141.98 15.5469L141.541 14.6484ZM137.41 15.5H132.329V16.5H137.41V15.5ZM132.829 16V0.294922H131.829V16H132.829ZM132.329 0.794922H137.765V-0.205078H132.329V0.794922ZM137.765 0.794922C139.399 0.794922 140.751 1.07567 141.84 1.61334L142.283 0.716737C141.023 0.0942526 139.51 -0.205078 137.765 -0.205078V0.794922ZM141.84 1.61334C142.925 2.14925 143.739 2.92624 144.297 3.95017L145.175 3.47171C144.516 2.26126 143.547 1.34099 142.283 0.716737L141.84 1.61334ZM144.298 3.95233C144.864 4.97831 145.16 6.25816 145.16 7.81445H146.16C146.16 6.13376 145.84 4.67794 145.174 3.46955L144.298 3.95233ZM141.756 7.96484C141.756 6.97183 141.622 6.11356 141.331 5.41039L140.407 5.79274C140.632 6.33566 140.756 7.05291 140.756 7.96484H141.756ZM141.334 5.41678C141.049 4.70029 140.604 4.1388 139.989 3.76666L139.471 4.62202C139.874 4.86576 140.188 5.24242 140.405 5.78635L141.334 5.41678ZM139.994 3.76933C139.386 3.39278 138.647 3.22168 137.808 3.22168V4.22168C138.515 4.22168 139.058 4.36569 139.467 4.61934L139.994 3.76933ZM137.808 3.22168H136.572V4.22168H137.808V3.22168ZM136.072 3.72168V12.5195H137.072V3.72168H136.072ZM136.572 13.0195H137.518V12.0195H136.572V13.0195ZM137.518 13.0195C138.902 13.0195 140.016 12.6163 140.742 11.7165L139.965 11.0882C139.488 11.678 138.711 12.0195 137.518 12.0195V13.0195ZM140.744 11.7147C141.448 10.8347 141.756 9.55462 141.756 7.96484H140.756C140.756 9.4545 140.462 10.466 139.963 11.09L140.744 11.7147Z" fill="white"/>
</svg>
